<svg xmlns="http://www.w3.org/2000/svg" xmlns:xlink="http://www.w3.org/1999/xlink" version="1.1" x="0px" y="0px" viewBox="0 0 100 125" style="enable-background:new 0 0 100 100;" xml:space="preserve"><path d="M80.1,32.9c-0.6-1.5-2.4-2.1-2.4-2.1s-0.2-0.9-0.7-1.7c0.1-0.1,0.3-0.2,0.4-0.4c0.2-0.5,0.2-1.1,0-1.6  c-0.7-1.5-1.1-0.6-1.8-0.6c-0.7,0-0.9-1.2-1.6-1c-0.2,0.1-0.4,0.4-0.7,0.4S72.7,25.3,72,25c-0.9-0.3-0.9,1.2-1.2,1.2  s-0.6-0.5-1.2-0.5c-0.7,0-0.7,1.7-0.7,1.7s-0.9-0.6-1.2,0.1c-0.1,0.2,0,0.7,0.2,1.1c0.4,0.7,1.1,0.8,1.8,0.9  c-3.4,2.3-7.3,7.2-11.1,15.5c-2.8,0.6-6.5,0.4-11.3,0.2c-5.1-4.9-0.8-15.3-12-15.6C32.6,29.5,29,30,26,34c-1.3,1.8-3,6,3.2,3  C23,42.1,23,47.7,24.7,48.3c2.1,0.8,6.2-4.3,8.2-5.7c-3.1,4.2-5.4,9.3-3.8,10.1c1.4,0.7,4-2.2,5-2.8c0.6-0.9-0.2,0.5-1.3,3.3  C31.5,56,33.6,56.6,36,55c0.2-0.1,0.4-0.2,0.6-0.3c0.4,1.8,1.2,3.5,2.3,4.8c2.8,3.3,5.9,7.7,10.6,9.9c0.7,1.5,2.3,2.9,3.3,3.7  l-0.4,7.1c0,0-1.2,0.1-1.2,1.8H55l2.3,0.2l2.8,0.8c0,0,0.1-0.5-0.1-0.9l2.7,0.3c0,0,0.2-1-1-1.1c-1.2-0.1-5.5-0.9-5.5-0.9l0.3-6.7  l2.1-2.7c-1.1,0-1.9-0.1-2.5-0.2c-0.2,0-0.2-0.3,0.1-0.3c1,0.1,3-0.1,3-0.1C66.6,69.3,71.3,65.2,73,60c5.7-5.8,1.4-14,1.3-21.8  c1.3,0.4,3.2-0.3,3.2-1.6c0-1.2-0.4-2.3-0.8-3L80.1,32.9z"/></svg>