<?xml version="1.0" standalone="no"?><!-- Generator: Gravit.io --><svg xmlns="http://www.w3.org/2000/svg" xmlns:xlink="http://www.w3.org/1999/xlink" style="isolation:isolate" viewBox="596.845 510.591 67.612 19.575" width="67.612" height="19.575"><g id="logo Fabulous"><path d="M 599.562 510.591 L 661.74 510.591 C 663.24 510.591 664.457 511.809 664.457 513.308 L 664.457 527.449 C 664.457 528.949 663.24 530.166 661.74 530.166 L 599.562 530.166 C 598.062 530.166 596.845 528.949 596.845 527.449 L 596.845 513.308 C 596.845 511.809 598.062 510.591 599.562 510.591 Z" style="stroke:none;fill:#FFFFFF;stroke-miterlimit:10;"/><g id="fabulous"><path d=" M 604.824 514.016 L 604.805 512.714 L 599.172 512.714 L 599.172 522 L 600.567 522 L 600.58 518.129 L 604.431 518.129 L 604.431 517.007 L 600.561 517.026 L 600.567 514.017 L 604.824 514.016 Z " fill="rgb(149,194,37)"/><path d=" M 612.993 522 L 609.123 512.726 L 608.787 512.726 L 604.954 522 L 606.413 522 L 607.104 520.185 L 611.012 520.185 L 611.61 522 L 612.993 522 Z  M 610.428 519.1 L 607.511 519.1 L 608.521 516.469 C 608.665 516.115 608.841 515.609 608.954 515.154 L 608.986 515.154 C 609.114 515.609 609.274 516.115 609.418 516.469 L 610.428 519.1 Z " fill-rule="evenodd" fill="rgb(149,194,37)"/><path d=" M 620.958 519.129 C 620.958 517.949 620.166 517.227 619.261 516.982 C 620.056 516.823 620.56 515.696 620.56 515.02 C 620.56 513.409 619.054 512.714 617.749 512.714 L 614.572 512.714 L 614.572 522 L 617.75 522 C 619.269 522 620.958 521.028 620.958 519.129 M 619.075 515.278 C 619.075 516.127 618.545 516.532 617.286 516.472 L 616.068 516.472 L 616.068 514.056 L 617.286 514.056 C 618.677 514.092 619.075 514.415 619.075 515.278 M 620.958 519.129 Z  M 619.526 519.27 C 619.526 520.392 618.523 520.881 617.456 520.881 L 616.007 520.881 L 616.007 517.659 L 617.456 517.659 C 618.523 517.659 619.526 518.177 619.526 519.27 Z " fill-rule="evenodd" fill="rgb(149,194,37)"/><path d=" M 629.496 518.764 L 629.496 512.714 L 628.249 512.714 L 628.249 518.62 C 628.249 519.987 627.533 520.936 626.062 520.936 C 624.59 520.936 623.888 519.987 623.888 518.62 L 623.888 512.714 L 622.602 512.714 L 622.602 518.764 C 622.602 520.907 624.073 522 626.049 522 C 628.024 522 629.496 520.907 629.496 518.764 Z " fill="rgb(149,194,37)"/><path d=" M 637.291 522 L 637.291 520.744 L 633.107 520.744 L 633.107 512.714 L 631.663 512.714 L 631.663 522 L 637.291 522 Z " fill="rgb(149,194,37)"/><path d=" M 647.392 517.303 C 647.392 514.379 645.059 512.714 642.699 512.714 C 640.339 512.714 638.007 514.379 638.007 517.303 C 638.007 520.257 640.339 522 642.699 522 C 645.059 522 647.392 520.257 647.392 517.303 Z  M 645.982 517.382 C 645.982 519.594 644.264 520.854 642.657 520.854 C 641.023 520.854 639.333 519.594 639.333 517.382 C 639.333 515.17 641.023 513.924 642.657 513.924 C 644.264 513.924 645.982 515.17 645.982 517.382 Z " fill-rule="evenodd" fill="rgb(149,194,37)"/><path d=" M 656.102 518.664 L 656.102 512.714 L 654.693 512.714 L 654.761 518.653 C 654.761 520.015 654.079 520.857 652.71 520.829 C 651.257 520.829 650.562 519.883 650.562 518.521 L 650.562 512.714 L 649.292 512.714 L 649.292 518.664 C 649.292 520.8 650.701 522 652.652 522 C 654.603 522 656.102 520.8 656.102 518.664 Z " fill="rgb(149,194,37)"/><path d=" M 663.647 519.517 C 663.647 517.963 662.556 516.926 660.764 516.417 C 659.8 516.086 659.282 515.597 659.282 514.993 C 659.282 514.317 659.848 513.767 660.783 513.767 C 661.585 513.812 662.067 514.282 662.263 514.691 L 663.147 514.085 C 662.745 513.51 661.756 512.714 660.85 512.714 C 658.894 512.714 657.944 513.814 657.944 515.094 C 657.944 516.359 658.807 517.28 660.447 517.812 C 661.555 518.172 662.261 518.68 662.261 519.471 C 662.261 520.32 661.532 520.857 660.511 520.857 C 659.518 520.857 659.014 520.167 658.378 519.395 L 657.42 520.221 C 657.852 520.857 658.715 521.954 660.579 522 C 662.65 522 663.647 521.156 663.647 519.517 Z " fill="rgb(149,194,37)"/></g><g id="village"><path d=" M 621.732 523.602 L 621.054 523.602 L 620.184 525.733 C 620.051 526.056 619.918 526.427 619.793 526.799 L 619.778 526.799 C 619.653 526.42 619.513 526.042 619.387 525.733 L 618.517 523.602 L 617.765 523.602 L 619.638 528.138 L 619.867 528.138 L 621.732 523.602 Z " fill="rgb(0,0,0)"/><path d=" M 623.37 528.336 L 623.37 523.631 L 622.655 523.631 L 622.655 528.336 L 623.37 528.336 Z " fill="rgb(0,0,0)"/><path d=" M 627.305 528.31 L 627.305 527.701 L 625.249 527.701 L 625.249 523.631 L 624.54 523.631 L 624.54 528.31 L 627.305 528.31 Z " fill="rgb(0,0,0)"/><path d=" M 631.033 528.307 L 631.033 527.695 L 628.961 527.695 L 628.961 523.602 L 628.245 523.602 L 628.245 528.307 L 631.033 528.307 Z " fill="rgb(0,0,0)"/><path d=" M 635.578 528.246 L 633.671 523.474 L 633.426 523.474 L 631.519 528.246 L 632.185 528.246 L 632.571 527.279 L 634.454 527.279 L 634.891 528.246 L 635.578 528.246 Z  M 634.285 526.859 L 632.849 526.859 L 633.346 525.51 C 633.417 525.329 633.504 525.069 633.559 524.836 L 633.575 524.836 C 633.638 525.069 633.717 525.329 633.788 525.51 L 634.285 526.859 Z " fill-rule="evenodd" fill="rgb(0,0,0)"/><path d=" M 640.116 527.793 L 640.159 525.94 L 638.249 525.926 L 638.235 526.428 L 639.47 526.471 L 639.498 527.376 C 639.277 527.531 638.828 527.649 638.393 527.649 C 637.434 527.649 636.669 527.128 636.669 525.911 C 636.655 524.446 637.588 524.159 638.335 524.13 C 638.741 524.164 639.068 524.317 639.384 524.59 L 639.915 524.159 C 639.599 523.901 638.998 523.484 638.349 523.484 C 637.177 523.484 635.908 524.282 635.908 525.911 C 635.879 527.247 636.995 528.252 638.263 528.252 C 638.964 528.252 639.666 528.154 640.116 527.793 Z " fill="rgb(0,0,0)"/><path d=" M 644.164 528.138 L 644.179 527.462 L 641.91 527.462 L 641.938 526.055 L 643.812 526.09 L 643.812 525.366 L 641.953 525.39 L 641.967 524.059 L 644.153 524.078 L 644.153 523.473 L 641.22 523.473 L 641.22 528.123 L 644.164 528.138 Z " fill="rgb(0,0,0)"/></g></g></svg>