<?xml version="1.0" standalone="no"?><!-- Generator: Gravit.io --><svg xmlns="http://www.w3.org/2000/svg" xmlns:xlink="http://www.w3.org/1999/xlink" style="isolation:isolate" viewBox="562.89 480.005 68.792 9.644" width="68.792" height="9.644"><g id="eurocamp logo as vector"><g id="eurocamp letters"><path d=" M 583.38 484.177 C 583.38 483.594 583.259 483.072 583.016 482.611 C 582.773 482.15 582.429 481.789 581.984 481.527 C 581.538 481.266 581.027 481.135 580.45 481.135 C 580.033 481.135 579.641 481.211 579.275 481.363 C 578.909 481.514 578.596 481.725 578.335 481.994 C 578.074 482.264 577.869 482.591 577.717 482.976 C 577.566 483.361 577.491 483.778 577.491 484.225 C 577.491 484.835 577.625 485.378 577.893 485.853 C 578.162 486.328 578.529 486.693 578.994 486.946 C 579.46 487.2 579.983 487.326 580.564 487.326 C 581.136 487.326 581.642 487.223 582.079 487.018 C 582.517 486.812 582.871 486.538 583.141 486.195 L 582.103 485.225 C 581.729 485.68 581.254 485.905 580.677 485.901 C 580.295 485.897 579.97 485.793 579.701 485.59 C 579.433 485.386 579.251 485.107 579.155 484.752 L 583.338 484.752 C 583.366 484.652 583.38 484.46 583.38 484.177 Z " fill="rgb(130,190,33)"/><path d=" M 580.504 482.548 C 580.842 482.548 581.121 482.641 581.339 482.827 C 581.558 483.012 581.709 483.269 581.793 483.596 L 579.161 483.596 C 579.253 483.257 579.417 482.997 579.654 482.818 C 579.89 482.638 580.174 482.548 580.504 482.548 Z " fill="rgb(255,255,255)"/><path d=" M 588.142 481.237 L 588.142 484.141 C 588.142 484.696 588.02 485.125 587.776 485.428 C 587.531 485.732 587.229 485.883 586.87 485.883 C 586.503 485.883 586.241 485.774 586.082 485.557 C 585.924 485.339 585.844 484.961 585.844 484.422 L 585.844 481.237 L 584.309 481.237 L 584.309 484.841 C 584.309 485.288 584.359 485.674 584.46 485.997 C 584.562 486.32 584.709 486.578 584.902 486.769 C 585.095 486.961 585.315 487.102 585.564 487.192 C 585.812 487.281 586.097 487.326 586.417 487.326 C 586.746 487.326 587.056 487.255 587.349 487.114 C 587.641 486.972 587.898 486.765 588.12 486.494 L 588.142 486.494 L 588.142 487.224 L 589.678 487.224 L 589.678 481.237 L 588.142 481.237 Z " fill="rgb(130,190,33)"/><path d=" M 594.458 481.135 C 594.103 481.135 593.77 481.22 593.458 481.39 C 593.147 481.559 592.877 481.802 592.65 482.117 L 592.632 482.117 L 592.632 481.237 L 591.027 481.237 L 591.027 487.224 L 592.632 487.224 L 592.632 484.446 C 592.632 483.987 592.767 483.612 593.036 483.321 C 593.306 483.029 593.68 482.883 594.159 482.883 C 594.283 482.883 594.424 482.889 594.584 482.901 L 594.584 481.141 C 594.56 481.137 594.518 481.135 594.458 481.135 Z " fill="rgb(130,190,33)"/><path d=" M 598.004 487.326 C 598.588 487.326 599.109 487.198 599.567 486.94 C 600.026 486.683 600.384 486.318 600.642 485.847 C 600.899 485.376 601.028 484.839 601.028 484.237 C 601.028 483.782 600.953 483.361 600.804 482.976 C 600.654 482.591 600.446 482.264 600.181 481.994 C 599.916 481.725 599.596 481.514 599.22 481.363 C 598.845 481.211 598.44 481.135 598.004 481.135 C 597.561 481.135 597.149 481.213 596.77 481.369 C 596.391 481.524 596.071 481.739 595.81 482.012 C 595.548 482.286 595.344 482.614 595.199 482.997 C 595.053 483.38 594.98 483.794 594.98 484.237 C 594.98 484.592 595.026 484.927 595.119 485.243 C 595.212 485.558 595.347 485.842 595.525 486.096 C 595.704 486.349 595.915 486.568 596.159 486.751 C 596.404 486.935 596.683 487.077 596.998 487.177 C 597.312 487.276 597.648 487.326 598.004 487.326 Z " fill="rgb(130,190,33)"/><path d=" M 598.004 485.889 C 597.572 485.889 597.217 485.731 596.938 485.413 C 596.66 485.096 596.52 484.704 596.52 484.237 C 596.52 483.758 596.658 483.361 596.932 483.048 C 597.207 482.735 597.564 482.578 598.004 482.578 C 598.428 482.578 598.781 482.733 599.061 483.042 C 599.342 483.351 599.482 483.75 599.482 484.237 C 599.482 484.716 599.34 485.111 599.056 485.422 C 598.771 485.734 598.421 485.889 598.004 485.889 Z " fill="rgb(255,255,255)"/><path d=" M 604.897 487.326 C 605.429 487.326 605.908 487.226 606.331 487.027 C 606.755 486.827 607.095 486.568 607.35 486.248 L 606.329 485.278 C 606.184 485.454 606.002 485.599 605.782 485.713 C 605.562 485.826 605.315 485.883 605.041 485.883 C 604.601 485.883 604.243 485.73 603.967 485.422 C 603.691 485.115 603.553 484.716 603.553 484.225 C 603.553 483.985 603.589 483.764 603.659 483.56 C 603.729 483.356 603.828 483.183 603.956 483.039 C 604.083 482.895 604.24 482.783 604.425 482.701 C 604.61 482.619 604.811 482.578 605.03 482.578 C 605.552 482.578 605.983 482.792 606.323 483.219 L 607.328 482.285 C 607.054 481.913 606.706 481.629 606.284 481.431 C 605.862 481.234 605.424 481.135 604.969 481.135 C 604.403 481.135 603.898 481.265 603.454 481.524 C 603.009 481.784 602.664 482.149 602.416 482.62 C 602.168 483.091 602.044 483.63 602.044 484.237 C 602.044 484.839 602.167 485.376 602.413 485.847 C 602.659 486.318 602.998 486.683 603.431 486.94 C 603.864 487.198 604.353 487.326 604.897 487.326 Z " fill="rgb(130,190,33)"/><path d=" M 612.518 481.237 L 612.518 481.913 L 612.494 481.913 C 612.047 481.395 611.458 481.135 610.727 481.135 C 610.332 481.135 609.96 481.213 609.611 481.369 C 609.261 481.524 608.962 481.738 608.712 482.009 C 608.463 482.281 608.266 482.61 608.123 482.997 C 607.979 483.384 607.907 483.802 607.907 484.249 C 607.907 484.704 607.979 485.124 608.123 485.509 C 608.266 485.894 608.465 486.22 608.718 486.485 C 608.972 486.75 609.275 486.957 609.629 487.105 C 609.982 487.252 610.364 487.326 610.775 487.326 C 611.542 487.326 612.138 487.051 612.565 486.5 L 612.595 486.5 L 612.595 487.224 L 614.122 487.224 L 614.122 481.237 L 612.518 481.237 Z " fill="rgb(130,190,33)"/><path d=" M 611.069 485.889 C 610.618 485.889 610.249 485.738 609.964 485.434 C 609.678 485.131 609.536 484.738 609.536 484.255 C 609.536 483.752 609.682 483.346 609.976 483.039 C 610.269 482.732 610.635 482.578 611.075 482.578 C 611.51 482.578 611.87 482.738 612.155 483.057 C 612.441 483.376 612.583 483.776 612.583 484.255 C 612.583 484.738 612.438 485.131 612.146 485.434 C 611.855 485.738 611.496 485.889 611.069 485.889 Z " fill="rgb(255,255,255)"/><path d=" M 622.345 481.135 C 621.914 481.135 621.519 481.218 621.162 481.384 C 620.805 481.549 620.505 481.788 620.261 482.099 L 620.243 482.099 C 619.892 481.456 619.299 481.135 618.465 481.135 C 618.129 481.135 617.806 481.212 617.495 481.366 C 617.183 481.519 616.91 481.74 616.674 482.027 L 616.657 482.027 L 616.657 481.237 L 615.052 481.237 L 615.052 487.224 L 616.657 487.224 L 616.657 484.231 C 616.657 483.883 616.712 483.583 616.824 483.33 C 616.936 483.076 617.086 482.887 617.273 482.764 C 617.461 482.64 617.676 482.578 617.92 482.578 C 618.626 482.578 618.98 483.097 618.98 484.135 L 618.98 487.23 L 620.584 487.23 L 620.584 484.231 C 620.584 483.883 620.639 483.583 620.749 483.33 C 620.859 483.076 621.006 482.887 621.189 482.764 C 621.373 482.64 621.578 482.578 621.806 482.578 C 622.504 482.578 622.854 483.097 622.854 484.135 L 622.854 487.23 L 624.458 487.23 L 624.458 483.746 C 624.458 482.859 624.274 482.203 623.905 481.776 C 623.535 481.349 623.015 481.135 622.345 481.135 Z " fill="rgb(130,190,33)"/><path d=" M 628.928 481.135 C 628.183 481.135 627.592 481.399 627.156 481.925 L 627.132 481.925 L 627.132 481.237 L 625.565 481.237 L 625.565 489.649 L 627.132 489.649 L 627.132 486.554 L 627.156 486.554 C 627.573 487.069 628.148 487.326 628.881 487.326 C 629.283 487.326 629.656 487.252 630.001 487.105 C 630.346 486.957 630.642 486.75 630.89 486.485 C 631.137 486.22 631.331 485.894 631.472 485.509 C 631.612 485.124 631.682 484.704 631.682 484.249 C 631.682 483.889 631.637 483.549 631.548 483.228 C 631.458 482.906 631.33 482.619 631.165 482.366 C 630.999 482.112 630.803 481.892 630.577 481.707 C 630.351 481.521 630.096 481.38 629.814 481.282 C 629.531 481.184 629.236 481.135 628.928 481.135 Z " fill="rgb(130,190,33)"/><path d=" M 628.594 485.889 C 628.31 485.889 628.052 485.822 627.82 485.689 C 627.588 485.555 627.404 485.362 627.27 485.111 C 627.135 484.859 627.068 484.574 627.068 484.255 C 627.068 484.019 627.106 483.798 627.182 483.59 C 627.258 483.382 627.362 483.205 627.495 483.057 C 627.628 482.909 627.788 482.793 627.977 482.707 C 628.167 482.621 628.372 482.578 628.594 482.578 C 629.023 482.578 629.38 482.732 629.665 483.039 C 629.949 483.346 630.092 483.752 630.092 484.255 C 630.092 484.738 629.952 485.131 629.673 485.434 C 629.395 485.738 629.035 485.889 628.594 485.889 Z " fill="rgb(255,255,255)"/></g><g id="Group"><path d=" M 566.64 481.799 C 566.747 481.839 566.839 481.906 566.921 481.988 C 567.002 482.069 567.069 482.161 567.11 482.269 C 567.199 482.481 567.2 482.721 567.111 482.934 C 567.023 483.147 566.853 483.316 566.64 483.403 C 566.315 483.536 565.942 483.462 565.694 483.214 C 565.446 482.966 565.372 482.593 565.506 482.269 C 565.593 482.055 565.762 481.885 565.975 481.797 C 566.188 481.709 566.427 481.709 566.64 481.799 Z  M 572.484 481.799 C 572.591 481.839 572.688 481.906 572.77 481.988 C 572.852 482.064 572.913 482.161 572.959 482.269 C 573.001 482.374 573.024 482.487 573.025 482.601 L 573.02 482.657 L 573.015 482.738 L 571.294 482.738 L 571.288 482.657 L 571.283 482.601 C 571.289 482.123 571.674 481.738 572.152 481.732 C 572.269 481.732 572.382 481.753 572.484 481.799 L 572.484 481.799 Z " fill="rgb(255,173,0)"/><path d=" M 574.742 481.661 C 575.979 483.256 575.889 485.51 574.529 487.002 C 573.169 488.495 570.933 488.793 569.23 487.709 C 567.486 488.783 565.22 488.428 563.889 486.872 C 562.557 485.316 562.557 483.022 563.889 481.466 C 565.22 479.909 567.486 479.554 569.23 480.629 Q 569.475 480.475 569.741 480.358 Q 570.001 480.246 570.282 480.164 Q 570.558 480.087 570.844 480.046 Q 571.13 480.005 571.421 480.005 C 572.724 480.005 573.955 480.618 574.742 481.661 L 574.742 481.661 Z  M 570.083 483.096 Q 569.996 482.851 569.873 482.621 Q 569.746 482.391 569.582 482.182 Q 569.424 481.977 569.23 481.799 Q 569.036 481.977 568.872 482.182 Q 568.714 482.391 568.586 482.621 Q 568.458 482.851 568.372 483.096 Q 568.285 483.341 568.239 483.602 C 568.387 483.694 568.545 483.77 568.714 483.816 C 569.05 483.918 569.409 483.918 569.746 483.816 C 569.914 483.77 570.073 483.694 570.221 483.602 Q 570.175 483.341 570.083 483.096 L 570.083 483.096 Z  M 569.603 486.136 Q 569.766 485.916 569.899 485.676 Q 570.027 485.431 570.113 485.165 Q 570.195 484.904 570.236 484.634 Q 569.996 484.726 569.741 484.777 Q 569.485 484.823 569.23 484.823 Q 568.969 484.823 568.719 484.777 Q 568.463 484.726 568.223 484.634 Q 568.264 484.904 568.346 485.165 Q 568.433 485.431 568.561 485.676 Q 568.688 485.916 568.857 486.136 Q 569.025 486.355 569.23 486.539 Q 569.434 486.355 569.603 486.136 L 569.603 486.136 Z  M 564.213 485.732 C 564.742 486.713 565.746 487.345 566.859 487.397 C 567.406 487.428 567.953 487.316 568.443 487.081 C 567.688 486.299 567.264 485.256 567.258 484.169 C 567.254 483.082 567.68 482.037 568.443 481.262 C 567.443 480.773 566.261 480.839 565.322 481.436 C 564.856 481.722 564.474 482.126 564.213 482.606 C 563.948 483.084 563.809 483.622 563.81 484.169 C 563.81 484.715 563.948 485.257 564.213 485.732 Z  M 573.945 486.182 C 574.896 485.005 574.901 483.326 573.957 482.144 C 573.013 480.962 571.374 480.595 570.016 481.262 C 570.78 482.036 571.206 483.081 571.202 484.169 C 571.204 485.257 570.778 486.303 570.016 487.081 Q 570.18 487.157 570.354 487.219 Q 570.522 487.28 570.701 487.321 Q 570.88 487.362 571.059 487.382 Q 571.237 487.402 571.421 487.402 C 572.402 487.402 573.332 486.953 573.945 486.182 L 573.945 486.182 Z " fill-rule="evenodd" fill="rgb(255,173,0)"/></g></g></svg>