<?xml version="1.0" standalone="no"?><!-- Generator: Gravit.io --><svg xmlns="http://www.w3.org/2000/svg" xmlns:xlink="http://www.w3.org/1999/xlink" style="isolation:isolate" viewBox="513.232 477.016 45.502 15.622" width="45.502" height="15.622"><g id="logo VS"><path d="M 515.783 477.016 L 556.183 477.016 C 557.591 477.016 558.734 478.16 558.734 479.568 L 558.734 490.087 C 558.734 491.495 557.591 492.638 556.183 492.638 L 515.783 492.638 C 514.375 492.638 513.232 491.495 513.232 490.087 L 513.232 479.568 C 513.232 478.16 514.375 477.016 515.783 477.016 Z" style="stroke:none;fill:#142F5E;stroke-miterlimit:10;"/><g id="logo"><path d="M 552.939 479.979 L 553.993 479.979 C 554.043 479.979 554.084 480.02 554.084 480.07 L 554.084 484.757 C 554.084 484.807 554.043 484.848 553.993 484.848 L 552.939 484.848 C 552.889 484.848 552.848 484.807 552.848 484.757 L 552.848 480.07 C 552.848 480.02 552.889 479.979 552.939 479.979 Z" style="stroke:none;fill:#FCCA02;stroke-miterlimit:10;"/><path d="M 552.939 478.387 L 553.993 478.387 C 554.043 478.387 554.084 478.427 554.084 478.478 L 554.084 479.34 C 554.084 479.39 554.043 479.431 553.993 479.431 L 552.939 479.431 C 552.889 479.431 552.848 479.39 552.848 479.34 L 552.848 478.478 C 552.848 478.427 552.889 478.387 552.939 478.387 Z" style="stroke:none;fill:#FCCA02;stroke-miterlimit:10;"/><path d=" M 525.503 479.87 Q 526.489 479.854 526.937 480.376 Q 527.35 480.899 527.375 481.646 C 527.377 481.697 527.337 481.738 527.287 481.739 L 526.279 481.754 C 526.229 481.755 526.188 481.715 526.188 481.665 Q 526.179 480.747 525.698 480.747 C 525.217 480.747 524.885 480.965 524.908 482.491 C 524.926 483.68 524.972 484.162 525.589 484.144 C 526.207 484.125 526.194 483.209 526.213 483.081 C 526.219 483.036 526.262 482.999 526.307 482.998 L 527.278 482.983 C 527.328 482.982 527.368 483.022 527.367 483.072 Q 527.349 484.203 526.803 484.658 Q 526.302 485.054 525.379 485.03 Q 524.484 484.986 524.09 484.441 Q 523.541 483.556 523.656 482.006 Q 523.714 480.888 524.306 480.304 Q 524.732 479.915 525.503 479.87 Z " fill="rgb(252,202,2)"/><path d=" M 529.58 479.839 Q 530.738 479.835 531.092 480.402 Q 531.36 480.748 531.312 482.048 L 531.312 484.779 C 531.312 484.829 531.272 484.869 531.222 484.867 Q 531.105 484.864 528.754 484.856 Q 528.209 484.838 527.95 484.489 Q 527.594 484.104 527.68 483.286 Q 527.787 482.661 528.168 482.382 Q 528.603 482.093 529.258 481.973 Q 529.925 481.814 530.007 481.669 Q 530.146 481.521 530.115 481.222 Q 530.103 480.929 529.916 480.806 Q 529.723 480.685 529.403 480.716 Q 529.194 480.786 529.084 480.933 Q 528.975 481.042 528.96 481.243 Q 528.952 481.347 528.952 481.374 C 528.95 481.424 528.908 481.465 528.858 481.465 Q 527.953 481.469 527.918 481.469 C 527.868 481.469 527.826 481.429 527.825 481.379 Q 527.8 480.561 528.381 480.144 Q 528.84 479.852 529.58 479.839 Z " fill="rgb(252,202,2)"/><path d=" M 521.447 479.8 Q 522.605 479.795 522.959 480.363 Q 523.259 480.703 523.18 482.008 L 523.18 484.739 C 523.18 484.79 523.139 484.829 523.089 484.827 Q 522.972 484.824 520.621 484.817 Q 520.076 484.799 519.817 484.449 Q 519.462 484.065 519.548 483.246 Q 519.654 482.622 520.035 482.342 Q 520.47 482.053 521.125 481.934 Q 521.792 481.775 521.874 481.629 Q 522.013 481.481 521.983 481.182 Q 521.97 480.889 521.783 480.767 Q 521.59 480.645 521.27 480.676 Q 521.062 480.746 520.951 480.893 Q 520.843 481.002 520.827 481.203 Q 520.82 481.307 520.819 481.334 C 520.817 481.384 520.776 481.425 520.725 481.425 Q 519.82 481.43 519.786 481.43 C 519.736 481.43 519.694 481.389 519.692 481.339 Q 519.668 480.522 520.249 480.104 Q 520.707 479.813 521.447 479.8 Z " fill="rgb(252,202,2)"/><path d=" M 539.363 480.752 C 539.428 480.942 539.448 481.147 539.445 481.255 C 539.444 481.305 539.443 481.37 539.442 481.399 C 539.442 481.399 538.451 481.447 538.335 481.432 C 538.22 481.417 538.375 480.714 537.772 480.702 C 537.17 480.69 537.155 481.055 537.146 481.271 C 537.158 481.681 537.721 481.787 538.263 481.998 C 538.804 482.21 539.032 482.222 539.319 482.646 Q 539.537 483.018 539.499 483.676 Q 539.299 484.911 537.741 484.986 Q 536.544 484.948 536.224 484.545 Q 535.904 484.142 535.888 483.416 C 535.887 483.366 535.922 483.308 535.968 483.287 Q 535.969 483.286 536.897 483.255 C 536.947 483.254 537.002 483.291 537.019 483.338 C 537.038 483.392 537.036 483.544 537.052 483.663 C 537.076 483.84 537.167 483.92 537.31 484.029 C 537.429 484.128 537.681 484.135 537.776 484.121 C 538.193 484.075 538.38 483.752 538.287 483.353 C 538.12 482.988 537.614 482.934 537.444 482.843 C 536.946 482.67 536.921 482.691 536.382 482.388 C 536.131 482.169 535.997 481.899 535.969 481.565 C 535.932 481.129 535.996 480.658 536.312 480.339 C 536.658 479.99 536.962 479.847 537.685 479.829 C 538.409 479.81 539.127 480.06 539.363 480.752 Z " fill="rgb(252,202,2)"/><path d=" M 550.511 479.829 Q 551.497 479.856 551.946 480.356 Q 552.43 481.132 552.372 482.555 C 552.37 482.605 552.328 482.646 552.278 482.646 L 549.87 482.646 Q 549.859 484.184 550.542 484.134 Q 551.054 484.16 551.174 483.298 C 551.181 483.249 551.228 483.208 551.278 483.208 Q 552.041 483.202 552.195 483.206 C 552.245 483.207 552.285 483.249 552.284 483.299 Q 552.268 484.169 551.741 484.649 Q 551.319 485.001 550.511 484.988 Q 549.353 484.985 548.944 484.163 Q 548.63 483.717 548.626 482.172 Q 548.605 480.828 549.298 480.221 Q 549.809 479.87 550.511 479.829 Z  M 534.179 479.87 C 534.77 479.861 535.004 479.85 535.333 480.336 Q 535.579 480.727 535.529 482.048 L 535.529 484.764 C 535.529 484.814 535.489 484.862 535.44 484.87 Q 535.409 484.876 534.379 484.865 C 534.329 484.865 534.288 484.824 534.288 484.774 L 534.288 481.497 C 534.297 481.247 534.25 480.801 533.698 480.82 C 533.146 480.838 533.088 481.358 533.087 481.533 Q 533.094 484.779 533.094 484.779 C 533.09 484.829 533.047 484.87 532.997 484.87 C 532.799 484.869 532.132 484.884 531.936 484.874 C 531.886 484.872 531.846 484.829 531.846 484.779 L 531.846 480.07 C 531.846 480.02 531.886 479.981 531.936 479.985 Q 532.033 479.991 532.946 479.98 C 532.996 479.98 533.037 480.02 533.038 480.07 L 533.046 480.527 C 533.074 480.499 533.106 480.439 533.146 480.376 Q 533.589 479.879 534.179 479.87 Z " fill-rule="evenodd" fill="rgb(252,202,2)"/><path d=" M 516.464 480.055 L 518.014 482.987 Q 518.011 480.065 518.011 480.059 C 518.012 480.009 518.054 479.97 518.104 479.971 Q 518.144 479.972 519.027 479.973 C 519.077 479.974 519.118 480.014 519.118 480.064 L 519.118 483.595 Q 519.141 484.642 519.132 484.762 C 519.128 484.812 519.085 484.86 519.035 484.869 Q 518.987 484.877 517.869 484.864 C 517.809 484.865 517.745 484.87 517.714 484.792 L 517.714 484.792 L 515.139 480.054 C 515.115 480.01 515.137 479.974 515.187 479.975 Q 516.265 479.978 516.331 479.977 C 516.381 479.975 516.441 480.01 516.464 480.055 Z " fill="rgb(252,202,2)"/><path d="M 547.03 478.387 L 548.096 478.387 C 548.148 478.387 548.191 478.429 548.191 478.481 L 548.191 484.77 C 548.191 484.822 548.148 484.864 548.096 484.864 L 547.03 484.864 C 546.978 484.864 546.935 484.822 546.935 484.77 L 546.935 478.481 C 546.935 478.429 546.978 478.387 547.03 478.387 Z" style="stroke:none;fill:#FCCA02;stroke-miterlimit:10;"/><path d="M 554.713 478.361 L 555.762 478.361 C 555.814 478.361 555.855 478.403 555.855 478.455 L 555.855 484.746 C 555.855 484.797 555.814 484.839 555.762 484.839 L 554.713 484.839 C 554.661 484.839 554.62 484.797 554.62 484.746 L 554.62 478.455 C 554.62 478.403 554.661 478.361 554.713 478.361 Z" style="stroke:none;fill:#FCCA02;stroke-miterlimit:10;"/><g id="opvullingkjes in blauw "><g id="Group"><path d=" M 539.817 481.6 C 539.817 479.738 541.329 478.226 543.191 478.226 C 545.054 478.226 546.565 479.738 546.565 481.6 C 546.565 483.463 545.054 484.974 543.191 484.974 C 541.329 484.974 539.817 483.463 539.817 481.6 Z " fill="rgb(252,202,2)"/><path d=" M 541.551 481.6 C 541.551 480.695 542.286 479.96 543.191 479.96 C 544.097 479.96 544.832 480.695 544.832 481.6 C 544.832 482.506 544.097 483.241 543.191 483.241 C 542.286 483.241 541.551 482.506 541.551 481.6 Z " fill="rgb(20,47,94)"/><rect x="543.057" y="478.035" width="0.289" height="3.699" transform="matrix(1,0,0,1,0,0)" fill="rgb(20,47,94)"/><rect x="544.894" y="480.095" width="0.273" height="3.68" transform="matrix(-0.105,0.995,-0.995,-0.105,1081.297,-9.734)" fill="rgb(20,47,94)"/><rect x="542.652" y="481.692" width="0.289" height="3.9" transform="matrix(-0.978,-0.208,0.208,-0.978,973.176,1069.569)" fill="rgb(20,47,94)"/><rect x="541.202" y="479.182" width="0.289" height="3.9" transform="matrix(0.309,-0.951,0.951,0.309,-83.522,847.305)" fill="rgb(20,47,94)"/><rect x="543.85" y="478.003" width="0.289" height="3.9" transform="matrix(0.914,0.407,-0.407,0.914,242.245,-179.769)" fill="rgb(20,47,94)"/><rect x="544.746" y="480.759" width="0.289" height="3.9" transform="matrix(-0.5,0.866,-0.866,-0.5,1235.375,252.175)" fill="rgb(20,47,94)"/><rect x="541.911" y="481.362" width="0.289" height="3.9" transform="matrix(-0.809,-0.588,0.588,-0.809,696.504,1192.932)" fill="rgb(20,47,94)"/><rect x="541.608" y="478.479" width="0.289" height="3.9" transform="matrix(0.669,-0.743,0.743,0.669,-177.779,561.56)" fill="rgb(20,47,94)"/><rect x="544.506" y="478.479" width="0.289" height="3.9" transform="matrix(0.669,0.743,-0.743,0.669,537.237,-245.795)" fill="rgb(20,47,94)"/><rect x="544.203" y="481.362" width="0.289" height="3.9" transform="matrix(-0.809,0.588,-0.588,-0.809,1268.818,554.36)" fill="rgb(20,47,94)"/><rect x="541.368" y="480.759" width="0.289" height="3.9" transform="matrix(-0.5,-0.866,0.866,-0.5,394.23,1193.028)" fill="rgb(20,47,94)"/><rect x="542.264" y="478.003" width="0.289" height="3.9" transform="matrix(0.914,-0.407,0.407,0.914,-148.321,262.112)" fill="rgb(20,47,94)"/><rect x="544.912" y="479.182" width="0.289" height="3.9" transform="matrix(0.309,0.951,-0.951,0.309,834.208,-185.925)" fill="rgb(20,47,94)"/><rect x="543.463" y="481.692" width="0.289" height="3.9" transform="matrix(-0.978,0.208,-0.208,-0.978,1175.89,843.693)" fill="rgb(20,47,94)"/><rect x="541.118" y="479.988" width="0.289" height="3.9" transform="matrix(-0.105,-0.995,0.995,-0.105,118.541,1070.612)" fill="rgb(20,47,94)"/><rect x="543.057" y="478.094" width="0.289" height="3.641" transform="matrix(1,0,0,1,0,0)" fill="rgb(20,47,94)"/><path d=" M 530.11 482.424 L 530.116 484.036 C 530.116 484.086 530.076 484.127 530.026 484.127 L 529.482 484.132 Q 529.099 484.162 528.984 483.923 Q 528.859 483.726 528.876 483.369 Q 528.91 482.974 529.172 482.813 C 529.434 482.652 529.714 482.647 530.11 482.424 Z " fill="rgb(20,47,94)"/><path d=" M 522.009 482.401 L 522.015 484.013 C 522.015 484.064 521.974 484.105 521.924 484.105 L 521.381 484.11 Q 520.997 484.139 520.883 483.901 Q 520.758 483.704 520.775 483.346 Q 520.809 482.951 521.071 482.79 C 521.333 482.629 521.613 482.624 522.009 482.401 Z " fill="rgb(20,47,94)"/><path d=" M 550.54 480.717 Q 550.855 480.712 550.984 480.893 Q 551.216 481.228 551.19 481.821 L 549.931 481.842 C 549.896 481.405 549.99 480.746 550.54 480.717 L 550.54 480.717 Z " fill="rgb(20,47,94)"/></g></g><path d=" M 539.371 489.289 L 539.371 486.506 C 539.371 486.42 539.349 486.388 539.258 486.388 L 539.067 486.388 C 538.972 486.388 538.926 486.397 538.926 486.506 L 538.926 487.619 L 537.678 487.619 L 537.678 486.506 C 537.678 486.42 537.655 486.388 537.564 486.388 L 537.374 486.388 C 537.278 486.388 537.233 486.397 537.233 486.506 L 537.233 489.289 C 537.233 489.403 537.265 489.421 537.374 489.421 L 537.564 489.421 C 537.66 489.421 537.678 489.38 537.678 489.289 L 537.678 487.973 L 538.926 487.973 L 538.926 489.289 C 538.926 489.407 538.954 489.421 539.067 489.421 L 539.258 489.421 C 539.353 489.421 539.371 489.38 539.371 489.289 Z  M 541.51 488.363 C 541.51 488.536 541.501 488.794 541.419 488.949 C 541.324 489.13 541.169 489.135 540.979 489.135 C 540.788 489.135 540.634 489.135 540.538 488.949 C 540.456 488.79 540.447 488.54 540.447 488.363 C 540.447 488.186 540.456 487.936 540.538 487.777 C 540.638 487.591 540.783 487.587 540.979 487.587 C 541.174 487.587 541.319 487.591 541.419 487.777 C 541.501 487.936 541.51 488.186 541.51 488.363 Z  M 541.932 488.363 C 541.932 487.7 541.714 487.242 540.979 487.242 C 540.239 487.242 540.025 487.691 540.025 488.363 C 540.025 489.031 540.243 489.48 540.979 489.48 C 541.709 489.48 541.932 489.026 541.932 488.363 Z  M 542.94 489.289 L 542.94 486.511 C 542.94 486.447 542.913 486.388 542.84 486.388 L 542.64 486.388 C 542.54 486.388 542.522 486.411 542.522 486.511 L 542.522 489.289 C 542.522 489.407 542.54 489.421 542.658 489.421 L 542.84 489.421 C 542.931 489.421 542.94 489.371 542.94 489.289 Z  M 544.048 489.289 L 544.048 487.432 C 544.048 487.369 544.02 487.31 543.948 487.31 L 543.734 487.31 C 543.634 487.31 543.616 487.333 543.616 487.432 L 543.616 489.289 C 543.616 489.421 543.648 489.421 543.771 489.421 L 543.948 489.421 C 544.039 489.421 544.048 489.371 544.048 489.289 Z  M 544.048 486.833 L 544.048 486.67 C 544.048 486.606 544.02 486.547 543.948 486.547 L 543.734 486.547 C 543.634 486.547 543.616 486.57 543.616 486.67 L 543.616 486.833 C 543.616 486.965 543.648 486.965 543.771 486.965 L 543.948 486.965 C 544.039 486.965 544.048 486.915 544.048 486.833 Z  M 546.045 488.894 C 545.905 489.021 545.682 489.149 545.487 489.149 C 545.373 489.149 545.251 489.094 545.183 488.999 C 545.092 488.872 545.083 488.636 545.083 488.486 C 545.083 488.272 545.092 487.773 545.305 487.646 C 545.378 487.6 545.441 487.596 545.528 487.596 C 545.7 487.596 545.877 487.632 546.045 487.678 L 546.045 488.894 Z  M 546.463 489.289 L 546.463 486.511 C 546.463 486.447 546.436 486.388 546.363 486.388 L 546.163 486.388 C 546.063 486.388 546.045 486.406 546.045 486.511 L 546.045 487.305 C 545.882 487.274 545.709 487.251 545.541 487.251 C 544.829 487.251 544.661 487.827 544.661 488.436 C 544.661 488.926 544.806 489.485 545.396 489.485 C 545.628 489.485 545.845 489.389 546.045 489.276 C 546.045 489.416 546.063 489.421 546.2 489.421 C 546.354 489.421 546.463 489.466 546.463 489.289 Z  M 548.329 488.867 C 548.175 488.999 547.866 489.158 547.657 489.158 C 547.448 489.158 547.43 488.972 547.43 488.804 C 547.43 488.731 547.435 488.64 547.471 488.577 C 547.562 488.431 547.879 488.445 548.025 488.445 C 548.125 488.445 548.229 488.449 548.329 488.454 L 548.329 488.867 Z  M 548.747 489.289 L 548.747 488.15 C 548.747 487.573 548.674 487.246 548.011 487.246 C 547.839 487.246 547.448 487.292 547.285 487.337 C 547.221 487.355 547.221 487.396 547.221 487.455 C 547.221 487.51 547.194 487.709 547.28 487.709 C 547.298 487.709 547.316 487.705 547.335 487.7 C 547.557 487.646 547.798 487.582 548.029 487.582 C 548.125 487.582 548.243 487.614 548.284 487.709 C 548.32 487.8 548.329 488.014 548.329 488.118 C 548.075 488.123 547.598 488.132 547.362 488.227 C 547.099 488.331 547.03 488.59 547.03 488.853 C 547.03 489.239 547.185 489.48 547.593 489.48 C 547.866 489.48 548.116 489.353 548.329 489.194 C 548.329 489.357 548.293 489.421 548.483 489.421 C 548.638 489.421 548.747 489.466 548.747 489.289 Z  M 551.067 487.364 C 551.067 487.319 551.026 487.31 550.989 487.31 L 550.781 487.31 C 550.676 487.31 550.653 487.342 550.622 487.437 L 550.168 488.867 L 549.682 487.387 C 549.655 487.305 549.596 487.31 549.518 487.31 L 549.305 487.31 C 549.273 487.31 549.223 487.314 549.223 487.355 C 549.223 487.414 549.918 489.18 549.986 489.357 L 549.641 490.206 C 549.632 490.229 549.614 490.261 549.614 490.288 C 549.614 490.334 549.65 490.329 549.686 490.329 L 549.927 490.329 C 550.009 490.329 550.036 490.32 550.063 490.243 L 551.026 487.491 C 551.035 487.464 551.067 487.392 551.067 487.364 Z  M 552.987 488.826 C 552.987 488.499 552.923 488.377 552.606 488.272 L 552.311 488.177 C 552.229 488.15 551.916 488.077 551.888 487.973 C 551.879 487.932 551.879 487.896 551.879 487.855 C 551.879 487.582 551.97 487.6 552.22 487.6 C 552.342 487.6 552.46 487.605 552.583 487.619 C 552.66 487.628 552.737 487.641 552.814 487.641 C 552.923 487.641 552.901 487.528 552.901 487.446 C 552.901 487.301 552.901 487.283 552.751 487.269 C 552.642 487.26 552.528 487.26 552.42 487.26 C 551.888 487.26 551.475 487.228 551.475 487.891 C 551.475 488.318 551.693 488.381 552.056 488.49 C 552.133 488.513 552.501 488.608 552.551 488.672 C 552.592 488.722 552.587 488.817 552.587 488.876 C 552.587 489.112 552.497 489.126 552.279 489.126 C 552.12 489.126 551.966 489.117 551.807 489.099 C 551.734 489.094 551.648 489.071 551.575 489.071 C 551.53 489.071 551.534 489.09 551.53 489.13 C 551.525 489.185 551.525 489.239 551.525 489.294 C 551.525 489.357 551.507 489.421 551.584 489.435 C 551.788 489.471 552.011 489.466 552.22 489.466 C 552.755 489.466 552.987 489.407 552.987 488.826 Z " fill-rule="evenodd" fill="rgb(255,255,255)"/><path d=" M 521.187 489.371 L 521.187 489.212 C 521.187 489.13 521.196 489.062 521.092 489.062 C 521.015 489.062 520.942 489.071 520.865 489.076 C 520.779 489.085 520.692 489.085 520.606 489.085 C 520.488 489.085 520.361 489.085 520.243 489.062 C 519.748 488.962 519.757 488.345 519.757 487.95 C 519.757 487.632 519.735 486.983 520.084 486.824 C 520.216 486.765 520.456 486.751 520.606 486.751 C 520.692 486.751 520.779 486.751 520.865 486.761 C 520.942 486.765 521.015 486.774 521.092 486.774 C 521.196 486.774 521.187 486.706 521.187 486.624 L 521.187 486.465 C 521.187 486.379 521.083 486.384 521.024 486.379 C 520.856 486.366 520.688 486.356 520.52 486.356 C 520.302 486.356 520.052 486.37 519.848 486.456 C 519.312 486.688 519.294 487.446 519.294 487.941 C 519.294 488.504 519.335 489.258 519.998 489.426 C 520.166 489.466 520.347 489.48 520.52 489.48 C 520.688 489.48 520.856 489.471 521.024 489.457 C 521.083 489.453 521.187 489.457 521.187 489.371 Z  M 523.008 488.867 C 522.854 488.999 522.545 489.158 522.336 489.158 C 522.127 489.158 522.109 488.972 522.109 488.804 C 522.109 488.731 522.114 488.64 522.15 488.577 C 522.241 488.431 522.558 488.445 522.704 488.445 C 522.804 488.445 522.908 488.449 523.008 488.454 L 523.008 488.867 Z  M 523.426 489.289 L 523.426 488.15 C 523.426 487.573 523.353 487.246 522.69 487.246 C 522.518 487.246 522.127 487.292 521.964 487.337 C 521.9 487.355 521.9 487.396 521.9 487.455 C 521.9 487.51 521.873 487.709 521.959 487.709 C 521.977 487.709 521.995 487.705 522.014 487.7 C 522.236 487.646 522.477 487.582 522.708 487.582 C 522.804 487.582 522.922 487.614 522.963 487.709 C 522.999 487.8 523.008 488.014 523.008 488.118 C 522.754 488.123 522.277 488.132 522.041 488.227 C 521.778 488.331 521.709 488.59 521.709 488.853 C 521.709 489.239 521.864 489.48 522.272 489.48 C 522.545 489.48 522.795 489.353 523.008 489.194 C 523.008 489.357 522.972 489.421 523.162 489.421 C 523.317 489.421 523.426 489.466 523.426 489.289 Z  M 526.731 489.289 L 526.731 487.823 C 526.731 487.528 526.635 487.237 526.29 487.237 C 526 487.237 525.786 487.373 525.564 487.537 C 525.505 487.342 525.369 487.237 525.164 487.237 C 524.897 487.237 524.683 487.355 524.474 487.51 C 524.474 487.432 524.488 487.31 524.374 487.31 L 524.175 487.31 C 524.075 487.31 524.057 487.328 524.057 487.432 L 524.057 489.289 C 524.057 489.426 524.088 489.421 524.216 489.421 L 524.374 489.421 C 524.465 489.421 524.474 489.371 524.474 489.289 L 524.474 487.882 C 524.606 487.777 524.842 487.582 525.015 487.582 C 525.074 487.582 525.105 487.6 525.142 487.65 C 525.192 487.718 525.187 487.986 525.187 488.068 L 525.187 489.289 C 525.187 489.421 525.214 489.421 525.341 489.421 C 525.5 489.421 525.605 489.466 525.605 489.289 L 525.605 487.882 C 525.732 487.777 525.973 487.582 526.145 487.582 C 526.204 487.582 526.24 487.605 526.272 487.65 C 526.318 487.714 526.313 487.991 526.313 488.068 L 526.313 489.289 C 526.313 489.426 526.345 489.421 526.472 489.421 L 526.631 489.421 C 526.726 489.421 526.731 489.376 526.731 489.289 Z  M 528.765 488.336 C 528.765 488.545 528.756 489.003 528.52 489.103 C 528.442 489.135 528.37 489.144 528.288 489.144 C 528.115 489.144 527.947 489.112 527.784 489.058 L 527.784 487.864 C 527.952 487.75 528.261 487.587 528.465 487.587 C 528.606 487.587 528.688 487.669 528.719 487.8 C 528.76 487.959 528.765 488.172 528.765 488.336 Z  M 529.187 488.322 C 529.187 487.859 529.142 487.242 528.533 487.242 C 528.261 487.242 528.011 487.378 527.784 487.51 C 527.784 487.432 527.798 487.31 527.684 487.31 L 527.484 487.31 C 527.385 487.31 527.366 487.328 527.366 487.432 L 527.366 490.211 C 527.366 490.347 527.398 490.343 527.525 490.343 C 527.675 490.343 527.784 490.388 527.784 490.211 L 527.784 489.412 C 527.943 489.457 528.111 489.48 528.274 489.48 C 528.597 489.48 528.91 489.371 529.069 489.071 C 529.182 488.853 529.187 488.563 529.187 488.322 Z  M 530.231 489.289 L 530.231 487.432 C 530.231 487.369 530.204 487.31 530.131 487.31 L 529.918 487.31 C 529.818 487.31 529.8 487.333 529.8 487.432 L 529.8 489.289 C 529.8 489.421 529.832 489.421 529.954 489.421 L 530.131 489.421 C 530.222 489.421 530.231 489.371 530.231 489.289 Z  M 530.231 486.833 L 530.231 486.67 C 530.231 486.606 530.204 486.547 530.131 486.547 L 529.918 486.547 C 529.818 486.547 529.8 486.57 529.8 486.67 L 529.8 486.833 C 529.8 486.965 529.832 486.965 529.954 486.965 L 530.131 486.965 C 530.222 486.965 530.231 486.915 530.231 486.833 Z  M 532.628 489.289 L 532.628 487.823 C 532.628 487.432 532.406 487.237 532.015 487.237 C 531.72 487.237 531.552 487.337 531.325 487.505 C 531.325 487.428 531.339 487.31 531.225 487.31 L 531.026 487.31 C 530.926 487.31 530.908 487.328 530.908 487.432 L 530.908 489.289 C 530.908 489.426 530.939 489.421 531.067 489.421 L 531.225 489.421 C 531.316 489.421 531.325 489.371 531.325 489.289 L 531.325 487.886 C 531.521 487.732 531.698 487.582 531.961 487.582 C 532.034 487.582 532.115 487.591 532.165 487.65 C 532.215 487.714 532.211 487.991 532.211 488.068 L 532.211 489.289 C 532.211 489.426 532.242 489.421 532.37 489.421 L 532.528 489.421 C 532.619 489.421 532.628 489.371 532.628 489.289 Z  M 534.531 489.035 C 534.367 489.094 534.158 489.139 533.986 489.139 C 533.713 489.139 533.659 489.003 533.627 488.758 C 533.609 488.631 533.6 488.504 533.6 488.377 C 533.6 488.204 533.623 487.932 533.695 487.773 C 533.777 487.6 533.922 487.587 534.095 487.587 C 534.24 487.587 534.385 487.591 534.531 487.6 L 534.531 489.035 Z  M 534.948 489.648 L 534.948 487.392 C 534.948 487.287 534.944 487.269 534.839 487.26 C 534.658 487.242 534.476 487.242 534.295 487.242 C 533.954 487.242 533.636 487.228 533.4 487.51 C 533.209 487.741 533.173 488.118 533.173 488.404 C 533.173 488.953 533.268 489.475 533.927 489.475 C 534.131 489.475 534.331 489.444 534.531 489.398 C 534.531 489.521 534.531 489.643 534.517 489.761 C 534.49 489.988 534.335 490.007 534.136 490.007 C 533.945 490.007 533.754 489.984 533.564 489.948 C 533.505 489.939 533.318 489.884 533.273 489.884 C 533.209 489.884 533.205 490.111 533.205 490.161 C 533.205 490.234 533.214 490.247 533.282 490.27 C 533.482 490.338 533.89 490.361 534.104 490.361 C 534.381 490.361 534.703 490.297 534.867 490.048 C 534.953 489.916 534.948 489.798 534.948 489.648 Z " fill-rule="evenodd" fill="rgb(255,255,255)"/></g></g></svg>