<svg xmlns="http://www.w3.org/2000/svg" xmlns:xlink="http://www.w3.org/1999/xlink" version="1.1" x="0px" y="0px" viewBox="0 0 55 68.75" enable-background="new 0 0 55 55" xml:space="preserve"><path d="M18.193,35.927c-0.246,0.01-0.618,0.025-1.07,0.039c-0.771,2.477-1.162,5.521,1.33,6.064  c1.881,0.408,3.139-0.852,3.526-2.603C21.176,38.14,19.963,36.748,18.193,35.927z"/><path d="M16.271,22.838c0.846-1.397,2.151-2.631,4.124-3.395c1.686-0.652,3.407-0.983,5.116-0.983c2.075,0,4.446,0.494,6.91,1.947  c0.373-1.879,0.146-4.031-2.919-3.887c0,0-0.116-3.306-2.272-3.588s-4.129,0.968-3.877,3.332c0,0-2.078-2.877-4.207-2.334  c-2.128,0.545-1.215,2.995-0.529,4.045c0,0-2.754-2.006-4.215-0.277C13.271,19.038,14.156,21.378,16.271,22.838z"/><path d="M20.906,20.763c-5.982,2.315-4.369,9.385-4.369,9.385c-2.447,1.088-6.1,4.215-6.1,4.215  c2.855,0.408,8.021,0.137,8.021,0.137c4.895,2.039,6.254,7.607,6.254,7.607h19.85C36.678,17.228,25.335,19.048,20.906,20.763z   M21.586,27.931c-0.828,0-1.5-0.67-1.5-1.5c0-0.828,0.672-1.5,1.5-1.5s1.5,0.672,1.5,1.5C23.086,27.261,22.414,27.931,21.586,27.931  z"/></svg>