<svg xmlns="http://www.w3.org/2000/svg" xmlns:xlink="http://www.w3.org/1999/xlink" version="1.1" x="0px" y="0px" viewBox="0 0 100 125" style="enable-background:new 0 0 100 100;" xml:space="preserve"><path d="M71.9,31.5l7.3-3.8l-6.9-4.4C70.9,15,63.6,8.8,54.9,8.8c-9.8,0-17.7,7.9-17.7,17.7c0,2.9,0.7,5.6,1.9,8  c-8.6,2.9-14.9,11.1-14.9,20.7c0,9.2,5.7,17.1,13.8,20.3v8.2l-4.8,5c-0.3,0.3-0.3,0.9,0,1.2c0.2,0.2,0.4,0.2,0.6,0.2  c0.2,0,0.4-0.1,0.6-0.3l3.5-3.7v2.9c0,0.5,0.4,0.8,0.8,0.8c0.5,0,0.8-0.4,0.8-0.8v-2.9l3.3,3.5c0.3,0.3,0.9,0.4,1.2,0  c0.3-0.3,0.4-0.9,0-1.2l-4.5-4.8v-7.6c2,0.6,4.2,0.9,6.4,0.9c1.9,0,3.7-0.2,5.5-0.7v7.4l-4.8,5c-0.3,0.3-0.3,0.9,0,1.2  c0.2,0.2,0.4,0.2,0.6,0.2c0.2,0,0.4-0.1,0.6-0.3l3.5-3.7v2.9c0,0.5,0.4,0.8,0.8,0.8s0.8-0.4,0.8-0.8v-2.9l3.3,3.5  c0.3,0.3,0.9,0.4,1.2,0c0.3-0.3,0.4-0.9,0-1.2l-4.5-4.8v-7.9c8.6-3,14.7-11.1,14.7-20.7c0-5-1.7-9.6-4.5-13.2  C67.5,39.7,70.6,36,71.9,31.5z M59.8,21.4c1.2,0,2.1,1,2.1,2.1s-1,2.1-2.1,2.1s-2.1-1-2.1-2.1S58.6,21.4,59.8,21.4z"/></svg>