<svg xmlns="http://www.w3.org/2000/svg" xmlns:xlink="http://www.w3.org/1999/xlink" version="1.1" x="0px" y="0px" viewBox="0 0 100 125" enable-background="new 0 0 100 100" xml:space="preserve"><path d="M94.933,38.043c-0.373-1.575-2.296-1.401-3.57-2.38c1.281-1.611,1.268-3.268,0.604-4.374  c-0.895-1.494-2.972-1.996-4.684-0.049c-4.064-4.308-9.388-6.131-16.831-6.459c-19.159-0.841-36.274,2.075-47.092,9.522  c-1.679,1.157-6.375,6.154-8.67,5.951c-1.104-0.097-1.672-1.759-3.231-1.871c-1.118-0.078-2.079,0.312-2.209,1.7  c1.845,0.761,3.624,1.59,3.229,4.59c-1.761,0.5-1.105,2.321-1.7,3.91c-0.64,1.717-2.451,2.353-3.57,3.569  C6.242,52.092,5.356,52.111,5,52.664c0.276,2.162,1.387,3.486,2.38,4.929c4.601-0.371,8.058,1.45,11.56,1.7  c4.219,0.301,7.406,0.742,10.704,0.992h0.001c1.762,0.172,3.111,0.475,4.148,0.839c0.356,0.127,0.678,0.261,0.964,0.398  c0.59,0.288,1.04,0.6,1.377,0.911c0.486,0.449,0.747,0.898,0.883,1.282c-0.001,0.028,0,0.057-0.002,0.085  c-0.04,0.613-0.107,1.223-0.195,1.829c-0.082,0.557-0.182,1.112-0.299,1.661c-0.062,0.288-0.121,0.581-0.179,0.873  c-0.005,0.025-0.01,0.046-0.014,0.072c-0.058,0.271-0.115,0.545-0.177,0.818c-0.104,0.445-0.233,0.879-0.388,1.299  c-0.038,0.102-0.066,0.206-0.109,0.307c-0.235,0.557-0.599,1.045-0.931,1.545c0,0,0.002-0.004,0.003-0.006  c-0.006,0.009-0.011,0.017-0.016,0.026c-0.104,0.157-0.203,0.314-0.294,0.474c-0.018,0.034-0.034,0.064-0.052,0.093  c-0.092,0.174-0.178,0.348-0.246,0.534c-0.022,0.059-0.054,0.106-0.091,0.148c-0.015,0.015-0.033,0.025-0.05,0.038  c-0.025,0.021-0.049,0.043-0.076,0.055c-0.022,0.008-0.046,0.013-0.069,0.019c-0.026,0.011-0.051,0.017-0.078,0.021  c-0.024,0.002-0.048,0-0.072-0.002c-0.034,0-0.068,0-0.101-0.008c-0.263,0.475-0.694,0.78-0.702,1.505  c0.091,0.042,0.191,0.07,0.295,0.097v0.004l0.001-0.004c0.635,0.155,1.505,0.076,2.313,0.057v0.002h0.46  c0.113,0.002,0.225,0.004,0.332,0.015c0.004-0.004,0.008-0.011,0.014-0.015h0.735c0.087-1.343,2.999-1.958,3.407-3.361  c0.175-0.611-0.122-1.839,0-2.721c0.379-2.766,2.65-5.464,2.908-8.253c0.555-0.474,1.098-0.864,1.522-1.121  c1.418-0.867,1.672-0.485,3.655-0.341c4.314,0.314,8.526,1.34,12.92,1.53c3.46,0.153,6.829-0.5,10.402-0.655l-0.008-0.006  c0,0,2.851-0.581,4.527-0.564c0.103,0,0.202,0.004,0.297,0.011c0.098,0.045,0.176,0.13,0.203,0.273c0.334,1.797,0.915,3.59,1.37,5.4  c0.367,1.458,0.652,0.458,0.664,1.943c0.012,1.295-0.113,2.681-0.818,3.804c-0.649,1.038-1.859,1.791-2.222,2.975  c0.012-0.002,0.023-0.002,0.035-0.004c0.026,0.521-0.596,0.763-0.17,1.189h1.85h1.891c0.085-1.341,2.482-1.829,2.89-3.232  c0.175-0.608-0.122-1.837,0-2.719c0.4-2.918,2.912-5.762,2.935-8.717h0.006c0,0,0-1.579,0.91-3.393  c0.096-0.191,0.193-0.383,0.31-0.576c0.004-0.011,0.005-0.015,0.01-0.023c2.633-3.119,4.746-7.619,4.837-12.537  c0.67,0.502,1.083,1.852,2.21,1.361c0.93-1.208-0.556-1.236-0.511-2.38C93.14,41.22,95.414,40.072,94.933,38.043z"/></svg>