<svg xmlns="http://www.w3.org/2000/svg" xmlns:xlink="http://www.w3.org/1999/xlink" version="1.1" x="0px" y="0px" viewBox="0 0 50 62.5" enable-background="new 0 0 50 50" xml:space="preserve"><g><path fill-rule="evenodd" clip-rule="evenodd" d="M38.217,5.292c0-0.598,0.485-1.082,1.083-1.082c0.598,0,1.083,0.485,1.083,1.082   c0,0.598-0.485,1.082-1.083,1.082C38.702,6.374,38.217,5.89,38.217,5.292 M17.036,10.376c-1.601-0.918-3.914-0.776-5.475,0.155   c-1.956-0.438-4.509,0.381-5.335,2.339c-2.022,0.638-3.524,3.042-3.549,4.979c-1.573,1.396-1.82,4.231-0.681,5.964   c-1.319,1.955-0.663,5.72,1.523,6.82c-0.88,2.158,0.195,5.701,2.735,6.131V49.38c0,0.342,0.257,0.62,0.603,0.62h3.9   c0.341,0,0.618-0.257,0.618-0.603v-10.62c0-2.369,1.811-4.078,4.01-4.311c2.317-0.22,5.692-0.864,11.535,0.003   c2.223,0.329,4.223,1.769,4.243,4.308V49.38c0,0.342,0.257,0.62,0.603,0.62h3.9c0.342,0,0.619-0.257,0.619-0.603V36.729   c1.652-0.308,2.933-1.799,3.524-3.324c1.343-0.695,2.244-2.038,2.433-3.532c2.193-0.506,2.714-3.749,2.429-5.63   c1.351-1.311,1.553-4.376,0.511-5.91c0.105-1.335-0.283-2.959-1.078-4.034c0.556-0.019,1.066-0.006,1.535-0.028   c0.465-0.022,0.807-0.042,1.19-0.201c1.451-0.601,2.527-3.143,1.44-4.402c-0.573-0.683-1.337-1.399-1.99-2.017l-4.538-4.586   c-0.804-0.965-1.969-1.28-3.242-1.409L34.561,0.45l-0.216-0.095c-1.591-0.675-3.23-0.601-2.631,2.134l0.428,1.957   c-1.441,0.646-2.247,1.96-2.238,3.635c-1.502,0.088-2.855,1.351-3.377,2.709c-1.188-0.266-2.951-0.076-4.093,0.293   C21.046,9.958,18.672,9.695,17.036,10.376z"/></g></svg>